Coordinates
version=1
nRows=29
nColumns=24
inDegrees=yes

Units are S.I. units (second, meters, Newtons, ...)
Angles are in degrees.

endheader
time	pelvis_tilt	pelvis_list	pelvis_rotation	pelvis_tx	pelvis_ty	pelvis_tz	hip_flexion_r	hip_adduction_r	hip_rotation_r	knee_angle_r	ankle_angle_r	subtalar_angle_r	mtp_angle_r	hip_flexion_l	hip_adduction_l	hip_rotation_l	knee_angle_l	ankle_angle_l	subtalar_angle_l	mtp_angle_l	lumbar_extension	lumbar_bending	lumbar_rotation
      1.77466667	      3.34366622	      3.49941953	     -3.70360003	      1.37765632	      1.02776509	      0.23932572	     12.58964838	     -2.79844339	      0.43465765	    -59.84648443	      5.75283019	    -15.90233691	      4.58722348	      0.40518680	      9.07885265	      0.97804316	     -6.95871273	      3.15602541	    -13.12951118	      4.98107780	     -3.58981609	     -4.65956223	      3.76873131
      1.77883333	      3.32520566	      3.40710180	     -3.41706610	      1.38221899	      1.02812469	      0.23873203	     13.00286446	     -2.68709075	      0.27851749	    -59.24448332	      5.86326167	    -15.92188762	      4.51128150	     -0.00362471	      9.00554273	      1.27888599	     -6.72132202	      3.23109990	    -13.08579709	      4.91731750	     -3.61047857	     -4.53134897	      3.60918962
      1.78300000	      3.32926865	      3.32717045	     -3.13381230	      1.38678892	      1.02846738	      0.23816061	     13.38392132	     -2.59189204	      0.13373688	    -58.62618386	      5.98409814	    -15.92840011	      4.43213534	     -0.43892920	      8.94206856	      1.57954401	     -6.46944890	      3.28934714	    -13.04682106	      4.85026319	     -3.65485263	     -4.42048462	      3.42330735
      1.78716667	      3.30006981	      3.25972331	     -2.84165710	      1.39131615	      1.02872588	      0.23760099	     13.80041137	     -2.51103232	     -0.00852763	    -57.99534402	      6.11130165	    -15.92283906	      4.39577677	     -0.81089190	      8.88125152	      1.84025711	     -6.26701035	      3.34586048	    -12.94366995	      4.82173514	     -3.66168290	     -4.32972516	      3.34090775
      1.79133333	      3.29616458	      3.18904994	     -2.56136106	      1.39586870	      1.02899176	      0.23703950	     14.17908119	     -2.43443976	     -0.14441221	    -57.33299593	      6.17985556	    -15.92696351	      4.31674810	     -1.24189038	      8.82103915	      2.17184752	     -6.00304511	      3.41765609	    -12.94566292	      4.75384996	     -3.69689909	     -4.22404932	      3.05295585
      1.79550000	      3.26800184	      3.11958333	     -2.27232560	      1.40037728	      1.02920945	      0.23649522	     14.57158675	     -2.35839639	     -0.27646050	    -56.64128857	      6.28039005	    -15.89837087	      4.24615869	     -1.61807936	      8.75277554	      2.46632608	     -5.79263147	      3.48821860	    -12.90685238	      4.69277463	     -3.70599840	     -4.12628744	      2.88474521
      1.79966667	      3.25746293	      3.05231634	     -1.99451609	      1.40489155	      1.02943062	      0.23598039	     14.93597909	     -2.28602794	     -0.39446029	    -55.92492335	      6.38318439	    -15.85856463	      4.21393463	     -2.00178805	      8.68021145	      2.70931668	     -5.59608053	      3.54017239	    -12.79700954	      4.66555459	     -3.73896622	     -4.03497302	      2.80733502
      1.80383333	      3.24506163	      2.98608166	     -1.70909976	      1.40943613	      1.02961429	      0.23545472	     15.28669617	     -2.22249456	     -0.51982565	    -55.18031156	      6.46949493	    -15.81181226	      4.18133376	     -2.38653409	      8.60679865	      2.98682192	     -5.40592878	      3.62829647	    -12.72131129	      4.63871339	     -3.76155468	     -3.94246541	      2.66509472
      1.80800000	      3.23547059	      2.93111587	     -1.42896478	      1.41393029	      1.02976654	      0.23494845	     15.63034943	     -2.16845511	     -0.62214923	    -54.42246522	      6.52801611	    -15.77551631	      4.11211745	     -2.78782893	      8.54417315	      3.30951611	     -5.17438745	      3.69895259	    -12.73538884	      4.57535176	     -3.79609555	     -3.86527231	      2.35323258
      1.81216667	      3.19310754	      2.89375128	     -1.16767333	      1.41844171	      1.02982509	      0.23447923	     16.01506204	     -2.13411392	     -0.70755655	    -53.66742312	      6.62745388	    -15.71247515	      4.09540033	     -3.13067189	      8.49220830	      3.53324375	     -4.98292296	      3.76426126	    -12.60674969	      4.56196388	     -3.78203451	     -3.80045947	      2.31856828
      1.81633333	      3.21265317	      2.83586227	     -0.87719562	      1.42297122	      1.02998769	      0.23398182	     16.29309241	     -2.08906484	     -0.82199260	    -52.84196471	      6.67386707	    -15.63192968	      4.04014656	     -3.54938823	      8.41735808	      3.84570870	     -4.78786529	      3.85206025	    -12.61260642	      4.50765325	     -3.84233048	     -3.72493244	      2.05586485
      1.82050000	      3.16556956	      2.79594627	     -0.60665612	      1.42743742	      1.02999557	      0.23351944	     16.65998260	     -2.06049118	     -0.91120085	    -52.03558872	      6.75627675	    -15.55636515	      4.02553762	     -3.86997802	      8.35519419	      4.08159419	     -4.62546150	      3.92421859	    -12.49187812	      4.49518520	     -3.83378673	     -3.66291209	      2.00804914
      1.82466667	      3.14265855	      2.74181728	     -0.31426173	      1.43193339	      1.03004165	      0.23303514	     16.96633631	     -2.02081258	     -1.00732014	    -51.17355724	      6.80252629	    -15.45980508	      4.00120766	     -4.21018519	      8.27509064	      4.34047228	     -4.49116251	      4.01842353	    -12.43502184	      4.47163260	     -3.85244879	     -3.58787781	      1.85220509
      1.82883333	      3.12717191	      2.69537410	     -0.03366571	      1.43639219	      1.03007800	      0.23258600	     17.26189498	     -1.99082257	     -1.09686144	    -50.29886599	      6.83775709	    -15.38047725	      3.97981981	     -4.56336779	      8.19868346	      4.60223082	     -4.33191380	      4.10659860	    -12.35708654	      4.45086297	     -3.87272243	     -3.52136128	      1.69222736
      1.83300000	      3.12541431	      2.67825169	      0.22849456	      1.44087389	      1.03006127	      0.23216778	     17.54780203	     -1.99070929	     -1.15948327	    -49.43814134	      6.87314860	    -15.30547354	      3.93278912	     -4.95544294	      8.15295930	      4.89013349	     -4.12492508	      4.17831337	    -12.34889231	      4.40098216	     -3.92184986	     -3.49751753	      1.40371274
      1.83716667	      3.09110766	      2.63904011	      0.49606502	      1.44537119	      1.03000357	      0.23174100	     17.84692811	     -1.97286266	     -1.23437852	    -48.53531184	      6.90824808	    -15.20229805	      3.91761134	     -5.28024754	      8.07877098	      5.10739281	     -3.98338334	      4.27902198	    -12.24868542	      4.38503229	     -3.91460867	     -3.43838953	      1.35725455
      1.84133333	      3.09592532	      2.61633219	      0.75794511	      1.44982713	      1.02996595	      0.23133629	     18.10172430	     -1.97313555	     -1.30151441	    -47.62601148	      6.90809451	    -15.12989248	      3.88689435	     -5.65085408	      8.02019011	      5.35611104	     -3.83432238	      4.40555725	    -12.19412639	      4.35017512	     -3.96930220	     -3.40271298	      1.15398234
      1.84550000	      3.07559699	      2.59037843	      1.02029910	      1.45430071	      1.02987240	      0.23093932	     18.37031821	     -1.97230689	     -1.36805826	    -46.69651649	      6.91627341	    -15.04959626	      3.86099846	     -5.98862371	      7.95436887	      5.58316343	     -3.69266793	      4.51719982	    -12.10519917	      4.32017131	     -3.99081939	     -3.36306717	      1.01708085
      1.84966667	      3.04537987	      2.56852607	      1.28002544	      1.45876493	      1.02974317	      0.23054763	     18.64080176	     -1.97838660	     -1.43125914	    -45.75275873	      6.93047174	    -14.95628209	      3.84886876	     -6.30730424	      7.89023471	      5.78818499	     -3.56742221	      4.62073977	    -11.99757170	      4.30766897	     -3.99818172	     -3.32363912	      0.94857551
      1.85383333	      3.03511334	      2.54473622	      1.53419972	      1.46325902	      1.02961131	      0.23018538	     18.87713824	     -1.97946032	     -1.48767828	    -44.78753817	      6.89583370	    -14.90879685	      3.82612529	     -6.65977388	      7.82009408	      6.01036931	     -3.41751542	      4.76024645	    -11.91278543	      4.28036557	     -4.02988100	     -3.28867776	      0.76203431
      1.85800000	      2.98770084	      2.55394300	      1.76346378	      1.46773890	      1.02938329	      0.22984632	     19.16322717	     -2.01637701	     -1.51807198	    -43.84422877	      6.91038556	    -14.81804437	      3.82084293	     -6.96918005	      7.78769936	      6.20881520	     -3.27009454	      4.87546601	    -11.78004464	      4.27684619	     -4.00385445	     -3.29102187	      0.73581542
      1.86216667	      2.99543670	      2.51172468	      2.03766109	      1.47222529	      1.02926574	      0.22946359	     19.34344036	     -2.00871125	     -1.60520455	    -42.81944675	      6.83820762	    -14.79538846	      3.80262012	     -7.31691707	      7.69005008	      6.41496530	     -3.17186733	      5.03279677	    -11.69870865	      4.25507054	     -4.07298450	     -3.23200185	      0.51212570
      1.86633333	      2.94496708	      2.52053031	      2.27053923	      1.47672037	      1.02899024	      0.22914484	     19.61235335	     -2.04875722	     -1.64143588	    -41.85328059	      6.83962829	    -14.70870099	      3.79840612	     -7.62369120	      7.65057355	      6.61049071	     -3.02280471	      5.15433456	    -11.56554409	      4.25229866	     -4.04565111	     -3.23577543	      0.49180291
      1.87050000	      2.96002228	      2.49015878	      2.53763784	      1.48119848	      1.02882903	      0.22878605	     19.76985433	     -2.05609898	     -1.72746477	    -40.80669740	      6.75392640	    -14.70629067	      3.78450572	     -7.97841064	      7.55964137	      6.80618420	     -2.91872147	      5.30947874	    -11.47740008	      4.23589838	     -4.12828824	     -3.18780808	      0.30012980
      1.87466667	      2.92607981	      2.48684233	      2.77371556	      1.48572755	      1.02854065	      0.22846325	     19.99132436	     -2.09260047	     -1.79360096	    -39.79789346	      6.73523835	    -14.63360955	      3.77855444	     -8.28760384	      7.50291184	      6.98335105	     -2.80910224	      5.44974379	    -11.36790171	      4.23002103	     -4.12268688	     -3.17331195	      0.25707866
      1.87883333	      2.91173354	      2.47394405	      3.01818555	      1.49026149	      1.02828376	      0.22813968	     20.16860549	     -2.11949319	     -1.86761593	    -38.75221384	      6.67755578	    -14.59334971	      3.77245488	     -8.61983560	      7.43005010	      7.16673933	     -2.69222860	      5.59888281	    -11.25906427	      4.22347473	     -4.14806874	     -3.14565282	      0.17958806
      1.88300000	      2.92244060	      2.46473197	      3.23999632	      1.49478403	      1.02802809	      0.22786828	     20.31498222	     -2.13649420	     -1.90653273	    -37.69624273	      6.59290545	    -14.61386211	      3.76221840	     -8.98655742	      7.35846434	      7.34509743	     -2.56004226	      5.75616261	    -11.14688469	      4.20572105	     -4.21106987	     -3.12663260	      0.01538054
      1.88716667	      2.87209952	      2.46624812	      3.48243860	      1.49933309	      1.02765774	      0.22755557	     20.52444725	     -2.18749078	     -1.99300854	    -36.65418005	      6.55358722	    -14.54863647	      3.75776337	     -9.27124516	      7.29990199	      7.53248349	     -2.46069882	      5.89960683	    -11.03897995	      4.19980872	     -4.18864980	     -3.11860557	     -0.02735474
      1.89133333	      2.84321423	      2.46127767	      3.71994305	      1.50391043	      1.02730291	      0.22726626	     20.69316932	     -2.22659125	     -2.07663449	    -35.59118025	      6.49262280	    -14.51429371	      3.75341818	     -9.58950143	      7.22956636	      7.71751836	     -2.34779593	      6.05622189	    -10.93791523	      4.19351555	     -4.19133897	     -3.10026352	     -0.10300981
